<svg width="22" height="24" viewBox="0 0 22 24" fill="none" xmlns="http://www.w3.org/2000/svg">
<path d="M0.433167 0L2.3566 21.5936L10.9873 24L19.6421 21.5848L21.567 0H0.433167ZM17.5712 4.94718L16.9309 12.1407L16.9328 12.1795L16.9301 12.2689V12.2681L16.4752 17.2979L16.4251 17.7448L11.0001 19.2453L10.9959 19.2491L5.58025 17.7402L5.21354 13.5817H7.86924L8.05766 15.6962L11.0009 16.4939L11.0001 16.4954V16.4951L13.9542 15.6861L14.2664 12.2427H8.09094L8.03796 11.6606L7.91725 10.2968L7.85394 9.56457H14.5011L14.7429 6.88649H4.61862L4.56564 6.30478L4.44512 4.94068L4.38161 4.20841H17.6345L17.5712 4.94718Z" fill="#3996DB"/>
</svg>
