<svg width="26" height="20" viewBox="0 0 26 20" fill="none" xmlns="http://www.w3.org/2000/svg">
<path d="M0.000305176 15.7468L3.01847 13.95C3.60068 14.9659 4.13073 15.8251 5.40133 15.8251C6.61884 15.8251 7.38688 15.3587 7.38688 13.533V1.13492H11.0935V13.5843C11.0935 17.3607 8.84334 19.08 5.56063 19.08C4.4001 19.1418 3.24776 18.8563 2.25539 18.2611C1.26301 17.666 0.476178 16.79 0.000305176 15.7468ZM13.1075 15.355L16.1256 13.6356C16.4612 14.3054 16.9821 14.8685 17.6283 15.2601C18.2746 15.6517 19.0201 15.8559 19.7791 15.8494C21.3152 15.8494 22.2937 15.0938 22.2937 14.0517C22.2937 12.8016 21.2877 12.3585 19.5932 11.6262L18.6697 11.24C15.9957 10.1205 14.2216 8.71372 14.2216 5.74433C14.2216 3.0091 16.3399 0.925959 19.6492 0.925959C20.7214 0.849497 21.7929 1.08537 22.7297 1.60414C23.6666 2.12291 24.4275 2.90162 24.9174 3.8431L22.0311 5.6669C21.8416 5.19955 21.5123 4.79986 21.0868 4.52081C20.6613 4.24175 20.1596 4.0965 19.6482 4.10431C19.4253 4.08213 19.2001 4.10591 18.9871 4.17414C18.774 4.24237 18.5778 4.35355 18.4108 4.50059C18.2439 4.64762 18.1099 4.82727 18.0175 5.02809C17.9251 5.22891 17.8763 5.44648 17.8741 5.6669C17.8741 6.76118 18.5625 7.20337 20.1498 7.88065L21.0762 8.27153C24.2271 9.59997 26.0003 10.9545 26.0003 14.0013C26.0003 17.2832 23.3794 19.0809 19.8587 19.0809C16.4167 19.0809 14.1932 17.4652 13.1075 15.355Z" fill="#EABD5F"/>
</svg>
