<svg width="24" height="26" viewBox="0 0 24 26" fill="none" xmlns="http://www.w3.org/2000/svg">
<path d="M22.5943 5.76103L13.1125 0.255444C12.5146 -0.0851479 11.736 -0.0851479 11.1333 0.255444L1.55027 5.76103C0.933166 6.11603 0.49646 6.78324 0.49646 7.49689V18.4934C0.49646 19.2071 0.944562 19.8745 1.56167 20.2314L4.09353 21.6695C5.30366 22.2655 5.73134 22.2655 6.282 22.2655C8.07376 22.2655 9.09726 21.182 9.09726 19.2922V8.43588C9.09726 8.28257 9.01749 8.05443 8.86697 8.05443H7.65792C7.50482 8.05443 7.16208 8.28257 7.16208 8.43566V19.292C7.16208 20.1297 6.40435 20.9634 4.98823 20.2553L2.37208 18.7474C2.28091 18.6979 2.21662 18.5984 2.21662 18.4934V7.49689C2.21662 7.39325 2.33596 7.28918 2.42777 7.23607L11.9798 1.73994C12.069 1.68941 12.2002 1.68941 12.2892 1.73994L21.7247 7.23478C21.815 7.28918 21.7832 7.39002 21.7832 7.49689V18.4934C21.7832 18.5984 21.8226 18.7005 21.7333 18.751L12.254 24.2504C12.1727 24.2992 12.0718 24.2992 11.9828 24.2504L9.5516 22.7992C9.47827 22.7566 9.39119 22.7414 9.32088 22.7807C8.64443 23.1641 8.51971 23.2151 7.88519 23.435C7.72909 23.4894 7.4988 23.5838 7.97335 23.8498L11.1552 25.7321C11.459 25.9075 11.8036 25.9999 12.1544 26C12.5075 26 12.8532 25.9084 13.1579 25.7321L22.5941 20.2314C23.2112 19.8719 23.5036 19.2071 23.5036 18.4934V7.49689C23.5036 6.78324 23.2112 6.11775 22.5943 5.76103ZM15.0985 16.7509C12.5771 16.7509 12.0217 16.0553 11.8366 14.8015C11.8151 14.6665 11.7005 14.505 11.5631 14.505H10.3308C10.1784 14.505 10.0558 14.6899 10.0558 14.8418C10.0558 16.4471 10.9286 18.3922 15.0987 18.3922C18.1173 18.3922 19.848 17.2192 19.848 15.1434C19.848 13.0853 18.4575 12.5451 15.53 12.1577C12.5709 11.7665 12.2703 11.5689 12.2703 10.8757C12.2703 10.3042 12.5249 9.54194 14.7159 9.54194C16.6737 9.54194 17.3953 9.96209 17.6923 11.2817C17.7176 11.4057 17.8309 11.4948 17.9589 11.4948H19.1961C19.2722 11.4948 19.3449 11.464 19.3982 11.4096C19.4498 11.3511 19.4771 11.2778 19.4703 11.1991C19.2787 8.92677 17.769 7.8678 14.7157 7.8678C11.9998 7.8678 10.3796 9.01471 10.3796 10.9372C10.3796 13.0225 11.9916 13.5987 14.5988 13.8565C17.7176 14.1623 17.9602 14.6181 17.9602 15.2316C17.9602 16.297 17.1048 16.7509 15.0985 16.7509Z" fill="#82BC4F"/>
</svg>
