<svg width="26" height="24" viewBox="0 0 26 24" fill="none" xmlns="http://www.w3.org/2000/svg">
<path d="M13.748 21.2578C13.5169 21.0535 13.2758 20.8484 13.0455 20.6213C12.8613 20.7915 12.6888 20.951 12.5062 21.1097C10.2267 23.0748 7.87709 23.8928 6.48428 23.0976C5.13691 22.3365 4.71244 20.0881 5.25169 17.2594C5.30921 16.9528 5.37829 16.6462 5.45892 16.3396C5.21703 16.2684 4.98669 16.2029 4.75635 16.126C1.88828 15.147 0.00012207 13.5572 0.00012207 11.9666C0.00012207 10.4338 1.76194 8.94576 4.51368 7.99172C4.82183 7.8892 5.14692 7.78739 5.48126 7.69626C5.40422 7.40079 5.34337 7.11671 5.28559 6.84189C4.70936 3.97053 5.11226 1.67656 6.47118 0.904079C7.88711 0.0860279 10.2367 0.961037 12.5963 3.01649C12.7342 3.14108 12.8729 3.27778 13.0224 3.41377C13.2411 3.20943 13.4484 3.0051 13.6671 2.82355C15.9012 0.901231 18.1229 0.0974194 19.4819 0.869905C20.8978 1.66446 21.313 4.1179 20.6798 7.15089C20.6451 7.34454 20.6027 7.5261 20.5534 7.72046C20.8415 7.8002 21.1289 7.89062 21.3939 7.98175C24.2034 8.93579 26.023 10.4238 25.9999 11.9908C25.9999 13.5921 24.054 15.1712 21.0696 16.148C20.9086 16.1936 20.7476 16.2506 20.5858 16.2954C20.6551 16.5225 20.7006 16.7496 20.7468 16.9768C21.3454 19.9186 20.8847 22.3265 19.4919 23.1218C19.1261 23.3253 18.7054 23.429 18.2785 23.4208C17.0021 23.4187 15.3812 22.6419 13.748 21.2578ZM16.0052 17.0893C15.3438 18.0402 14.6169 18.9507 13.8289 19.8154C14.0477 20.029 14.2665 20.2248 14.4853 20.4063C16.385 22.0189 18.1353 22.6212 18.9534 22.1556C19.2032 21.9568 19.4074 21.7136 19.5537 21.4405C19.7001 21.1674 19.7857 20.87 19.8054 20.5658C19.9716 19.4387 19.9247 18.2934 19.6667 17.1811C19.6321 16.9768 19.5897 16.7724 19.5288 16.5567C18.3687 16.8077 17.1914 16.9856 16.0052 17.0893ZM6.35562 17.4531C5.88416 19.8738 6.22928 21.6779 7.04895 22.1442C7.33935 22.2564 7.65288 22.3082 7.96733 22.2958C8.28178 22.2835 8.58946 22.2075 8.86855 22.073C9.95432 21.6513 10.9431 21.0421 11.7821 20.2782C11.9546 20.1415 12.1156 19.9827 12.289 19.8239C11.4837 18.959 10.7376 18.0485 10.0549 17.0978C8.8732 17.0066 7.69971 16.8401 6.54282 16.5994C6.47118 16.8963 6.4134 17.1797 6.35562 17.4531ZM13.0578 19.0429C13.5647 18.4861 14.0708 17.8731 14.5777 17.1918C14.0708 17.2146 13.5416 17.226 13.0116 17.226C12.4816 17.226 11.987 17.2146 11.4916 17.1918C12.0093 17.861 12.5286 18.4861 13.0578 19.0429ZM10.6388 7.95755C10.2013 8.58194 9.77527 9.23909 9.37237 9.93397C8.96947 10.6153 8.60201 11.3081 8.2669 11.9987C8.61279 12.68 8.98103 13.3728 9.38393 14.0776C9.78683 14.759 10.2128 15.4304 10.6504 16.0647C11.41 16.1103 12.205 16.1359 13.0108 16.1359C13.8166 16.1359 14.6224 16.1131 15.3943 16.0569C15.8088 15.4325 16.2348 14.7618 16.6384 14.0691C17.0421 13.3763 17.4211 12.6722 17.7555 11.9908C17.4211 11.3209 17.0413 10.6281 16.6384 9.93468C16.2355 9.24123 15.8095 8.58194 15.3835 7.95826C14.6132 7.9013 13.8174 7.86713 13.0116 7.86713C12.2058 7.86713 11.4108 7.90059 10.6388 7.95755ZM6.83941 15.5557C7.62946 15.7225 8.42909 15.8477 9.23448 15.9309C8.95792 15.4994 8.68212 15.0673 8.41712 14.613C8.16367 14.1702 7.91022 13.7273 7.67988 13.2845C7.34631 14.0563 7.06975 14.8188 6.83941 15.5557ZM17.6052 14.6016C17.3402 15.0559 17.0752 15.4873 16.811 15.9081C17.6285 15.8134 18.4396 15.677 19.2407 15.4994C18.9906 14.7327 18.6985 13.9783 18.3656 13.2389C18.1237 13.6932 17.8703 14.1474 17.6052 14.6016ZM4.87036 9.03618C2.52152 9.85423 1.10559 11.0454 1.10559 11.978C1.15037 12.2781 1.25883 12.567 1.42474 12.8282C1.59065 13.0895 1.81075 13.3178 2.0724 13.5002C2.97109 14.1987 4.00167 14.7377 5.11226 15.09C5.31949 15.1612 5.53827 15.2154 5.75705 15.2837C6.11075 14.1665 6.53755 13.0702 7.03509 12.0008C6.53659 10.9498 6.11352 9.8695 5.76861 8.76706C5.45789 8.84395 5.15848 8.93366 4.87036 9.03618ZM18.9988 11.978C19.5098 13.0338 19.9472 14.1187 20.3085 15.226C20.4587 15.1805 20.6081 15.1349 20.746 15.0893C23.3136 14.2492 24.906 12.9655 24.9145 11.9659C24.9145 11.0347 23.4408 9.83002 21.0341 9.01269C20.7922 8.93366 20.528 8.85392 20.2638 8.77418C19.9149 9.86549 19.4925 10.9355 18.9988 11.978ZM17.5945 9.36582C17.8595 9.82006 18.1129 10.2636 18.3425 10.7065C18.6624 9.98271 18.9391 9.24329 19.1714 8.49153C18.3893 8.3159 17.5975 8.17947 16.7994 8.08285C17.076 8.5022 17.341 8.92298 17.5945 9.36582ZM6.85097 8.48227C7.08208 9.20919 7.35787 9.9475 7.67988 10.7079C7.91099 10.265 8.16367 9.82219 8.41712 9.37935C8.67057 8.9365 8.9348 8.50505 9.21136 8.08428C8.38245 8.18467 7.59976 8.32065 6.85097 8.48227ZM14.3928 3.65512C14.1972 3.82529 14.0015 4.00684 13.805 4.1891C14.6046 5.0431 15.3395 5.94707 16.0044 6.89458C17.1762 6.99912 18.3384 7.18138 19.4819 7.43995C19.5281 7.26979 19.5589 7.09891 19.5974 6.92875C20.1367 4.31654 19.8046 2.31734 18.9295 1.81825C18.7374 1.7186 18.5195 1.66936 18.2993 1.67585C17.3587 1.67158 15.9151 2.34866 14.3928 3.65299V3.65512ZM7.02353 1.84673C6.20617 2.31235 5.88339 4.17486 6.36718 6.6283C6.42496 6.8896 6.48273 7.15018 6.5513 7.42286C7.69634 7.1738 8.85805 6.99541 10.0287 6.88888C10.696 5.94018 11.4348 5.03612 12.2397 4.18341C12.1133 4.0581 11.9747 3.9449 11.8483 3.83098C10.246 2.43054 8.70524 1.69152 7.69914 1.69152C7.46269 1.68406 7.22868 1.73782 7.02353 1.84673ZM14.5538 6.79846C14.079 6.16347 13.5667 5.55311 13.0193 4.97013C12.5016 5.52618 11.9831 6.13989 11.4785 6.79846C11.9854 6.77568 12.4916 6.76429 13.01 6.76429C13.5285 6.76429 14.0469 6.77355 14.5538 6.79846ZM10.7082 12.0236C10.6974 11.7317 10.749 11.4407 10.8601 11.1672C10.9713 10.8938 11.1397 10.6433 11.3557 10.4302C11.5718 10.217 11.8312 10.0453 12.1192 9.92499C12.4072 9.80466 12.718 9.73803 13.0339 9.72893C13.6713 9.74899 14.274 10.0018 14.71 10.432C15.146 10.8621 15.3796 11.4345 15.3596 12.0236C15.3802 12.6132 15.1468 13.1862 14.7106 13.6168C14.2743 14.0475 13.671 14.3005 13.0331 14.3204C12.7171 14.3113 12.4061 14.2446 12.118 14.1241C11.8299 14.0037 11.5704 13.8318 11.3544 13.6184C11.1384 13.405 10.9701 13.1542 10.8592 12.8806C10.7483 12.6069 10.697 12.3157 10.7082 12.0236Z" fill="#3996DB"/>
</svg>
